<?xml version="1.0" encoding="utf-8"?>
<!-- Generator: Adobe Illustrator 19.0.0, SVG Export Plug-In . SVG Version: 6.00 Build 0)  -->
<svg version="1.1" id="Layer_1" xmlns="http://www.w3.org/2000/svg" xmlns:xlink="http://www.w3.org/1999/xlink" x="0px" y="0px"
	 viewBox="-157 249.8 295.2 295.2" style="enable-background:new -157 249.8 295.2 295.2;" xml:space="preserve">
<style type="text/css">
	.st0{fill:#FFFFFF;}
</style>
<g>
	<g>
		<g>
			<path class="st0" d="M128.7,497.3L128.7,497.3V349.6c0-10.5-8.5-19-19-19H86.4c-0.1-0.4-0.2-0.9-0.3-1.3l-4.1,1.3H62v-7.7
				L0.4,292.1l-81.2,30.5v8.1h-22l-2.3-0.7c-0.1,0.2-0.1,0.5-0.2,0.7h-23.2c-10.5,0-19,8.5-19,19v147.6h-9.5v19c0,10.5,8.5,19,19,19
				h257.1c10.5,0,19-8.5,19-19v-19H128.7z M4.9,305l40.5,20.2L4.9,340.4V305z M4.9,350.6l47.6-17.9v52.1L4.9,361V350.6z M45.4,391.9
				l-59.5,22.3v-39.8l14-5.3L45.4,391.9z M-14.1,364.2v-6.5l9.5-3.6v6.5L-14.1,364.2z M-4.6,304.1V344l-14,5.3l-45.5-22.8
				L-4.6,304.1z M-71.3,333.5l47.6,23.8v10.4l-47.6,17.9C-71.3,385.6-71.3,333.5-71.3,333.5z M-23.7,377.9v35.4l-40.5-20.2
				L-23.7,377.9z M-19.2,426.3L62,395.8v-36.6h19c0,4.5-0.3,9-1,13.5l9.4,1.4c0.7-4.9,1.1-9.8,1.1-14.9h9.5v119h-219v-119h38.1v36.3
				L-19.2,426.3z M-138,349.6c0-5.3,4.3-9.5,9.5-9.5h20.9c-0.3,1.5-0.6,2.9-0.8,4.4l9.4,1.4c0.3-1.9,0.7-3.8,1.1-5.7h17v9.5h-47.6
				v138.1h238.1V349.6H62v-9.5h17c0.4,1.7,0.7,3.5,1,5.2l9.4-1.4c-0.2-1.3-0.5-2.5-0.7-3.8h20.9c5.3,0,9.5,4.3,9.5,9.5v147.6H4.9
				v9.5h-28.6v-9.5H-138V349.6z M128.7,516.3L128.7,516.3c0,5.3-4.3,9.5-9.5,9.5H-138c-5.3,0-9.5-4.3-9.5-9.5v-9.5h114.3
				c0,5.3,4.3,9.5,9.5,9.5H4.9c5.3,0,9.5-4.3,9.5-9.5h114.3V516.3z"/>
			<path class="st0" d="M-66,288.6l-6-7.4c-3.9,3.1-7.5,6.5-10.9,10.2l7,6.5C-72.8,294.5-69.5,291.4-66,288.6z"/>
			<path class="st0" d="M-42.7,275l-3.5-8.9c-4.6,1.8-9.1,4-13.4,6.5l4.8,8.2C-50.9,278.6-46.9,276.7-42.7,275z"/>
			<path class="st0" d="M-84.3,308.4l-7.9-5.4c-2.8,4.1-5.3,8.5-7.5,13l8.6,4.1C-89.1,316-86.8,312.1-84.3,308.4z"/>
			<path class="st0" d="M80.6,315.4c-2.2-4.5-4.7-8.8-7.5-12.9l-7.8,5.4c2.6,3.7,4.8,7.6,6.8,11.7L80.6,315.4z"/>
			<path class="st0" d="M-99.9,359.3l-9.5,0c0,5,0.4,10,1.1,14.9l9.4-1.4C-99.5,368.4-99.8,363.9-99.9,359.3z"/>
			<path class="st0" d="M56.7,297.4l7-6.5c-3.4-3.6-7.1-7-11-10.1l-5.9,7.5C50.3,291,53.7,294.1,56.7,297.4z"/>
			<path class="st0" d="M40.3,272.4c-4.3-2.5-8.9-4.7-13.5-6.4l-3.5,8.9c4.2,1.6,8.3,3.6,12.2,5.8L40.3,272.4z"/>
			<path class="st0" d="M12.6,261.6c-4.8-1.1-9.8-1.8-14.8-2.2l-0.7,9.5c4.5,0.3,9,1,13.4,2L12.6,261.6z"/>
			<path class="st0" d="M-16.4,269l-0.7-9.5c-5,0.4-9.9,1.1-14.8,2.3l2.1,9.3C-25.4,270-20.9,269.3-16.4,269z"/>
			<path class="st0" d="M53,437.3l-5.9-7.4c-3.5,2.8-7.3,5.4-11.2,7.6l4.8,8.2C45,443.3,49.1,440.4,53,437.3z"/>
			<path class="st0" d="M27.2,452.2l-3.5-8.9c-4.2,1.6-8.5,3-12.9,4l2.1,9.3C17.8,455.5,22.6,454.1,27.2,452.2z"/>
			<path class="st0" d="M73.3,415.5l-7.9-5.4c-2.5,3.7-5.4,7.3-8.4,10.6l7,6.5C67.3,423.5,70.5,419.6,73.3,415.5z"/>
			<path class="st0" d="M86.2,388.6l-9.1-2.8c-1.3,4.3-3,8.5-4.9,12.6l8.6,4.1C82.9,398,84.7,393.4,86.2,388.6z"/>
			<path class="st0" d="M-29.4,447.4c-4.4-1-8.7-2.3-12.9-4l-3.5,8.9c4.6,1.8,9.4,3.3,14.3,4.4L-29.4,447.4z"/>
			<path class="st0" d="M-1.8,458.9l-0.7-9.5c-4.5,0.3-9.1,0.3-13.5,0l-0.7,9.5c2.4,0.2,4.9,0.3,7.4,0.3
				C-6.8,459.2-4.3,459.1-1.8,458.9z"/>
			<path class="st0" d="M-54.5,437.6c-3.9-2.2-7.6-4.8-11.2-7.6l-5.9,7.4c3.9,3.1,8,5.9,12.3,8.4L-54.5,437.6z"/>
			<path class="st0" d="M-91.9,415.6c2.8,4.1,5.9,8,9.3,11.7l7-6.5c-3.1-3.3-5.9-6.8-8.4-10.6L-91.9,415.6z"/>
			<path class="st0" d="M-95.8,386l-9.1,2.8c1.5,4.7,3.3,9.4,5.5,13.9l8.6-4.2C-92.8,394.5-94.5,390.3-95.8,386z"/>
		</g>
	</g>
</g>
</svg>
