<?xml version="1.0" encoding="utf-8"?>
<!-- Generator: Adobe Illustrator 19.0.0, SVG Export Plug-In . SVG Version: 6.00 Build 0)  -->
<svg version="1.1" id="Layer_1" xmlns="http://www.w3.org/2000/svg" xmlns:xlink="http://www.w3.org/1999/xlink" x="0px" y="0px"
	 viewBox="-157 249.8 295.2 295.2" style="enable-background:new -157 249.8 295.2 295.2;" xml:space="preserve">
<style type="text/css">
	.st0{fill:#FFFFFF;}
</style>
<g>
	<g>
		<g>
			<path class="st0" d="M-51.8,373.8c-31.6,0-57.4,25.7-57.4,57.4c0,4.8,0.6,9.6,1.9,14.5l2.1,8l75.9-75.9l-8-2.1
				C-42.2,374.4-47.1,373.8-51.8,373.8z M-99.5,434.6c-0.1-1.2-0.1-2.3-0.1-3.4c0-26.4,21.5-47.8,47.8-47.8c1.1,0,2.3,0,3.4,0.1
				L-99.5,434.6z"/>
			<path class="st0" d="M116.6,316.4c-5.8,0-11.2,2.2-15.3,6.3l-10.8,10.7V264c0-7.9-6.4-14.3-14.3-14.3H-95.1
				c-7.9,0-14.3,6.4-14.3,14.3v79.1c-28.6,18.8-47.6,51.2-47.6,88c0,28.1,10.9,54.5,30.8,74.4l3.4,3.4l13.4-13.4v35.3
				c0,7.9,6.4,14.3,14.3,14.3H76.3c7.9,0,14.3-6.4,14.3-14.3V394.6l41.3-41.3c4.1-4.1,6.3-9.5,6.3-15.3
				C138.2,326.1,128.6,316.4,116.6,316.4z M-11.8,459.7l-5.2-5.2l98-98l5.2,5.2L-11.8,459.7z M-9.8,475.2l-12.9,2.1l2.1-12.9
				L-9.8,475.2z M-99.9,264c0-2.6,2.1-4.8,4.8-4.8H76.3c2.6,0,4.8,2.1,4.8,4.8v23.8h-181V264z M-99.9,297.4h181V343L-28.1,452.2
				l-6.1,36.7l36.7-6.1l78.7-78.7v93.3h-181v-11.5L25.9,360.1l-3.4-3.4C2.7,336.9-23.7,326-51.8,326c-17.3,0-33.6,4.2-48,11.7
				C-99.9,337.6-99.9,297.4-99.9,297.4z M-122.7,495.3c-1.2-1.4-2.3-2.8-3.5-4.2l7.6-5.5l-5.6-7.7l-7.6,5.5
				c-3.8-5.7-6.9-11.8-9.4-18.2l9-2.9l-2.9-9.1l-9,2.7c-1.8-6.6-2.8-10.9-3.1-20.4h9.3V426h-9.3c0.3-4.8,1.4-13.5,3.2-20l8.9,3
				l2.9-9l-8.9-2.9c2.5-6.4,5.5-12.5,9.3-18.2l7.6,5.5l5.6-7.7l-7.6-5.5c4.3-5.3,9.1-10.2,14.5-14.5l5.5,7.6l7.7-5.6l-5.5-7.6
				c5.7-3.7,11.8-6.8,18.2-9.3l2.9,8.9l9.1-2.9l-3.1-8.9c6.5-1.8,15.2-2.8,20-3.2v9.3h9.5v-9.3c9.5,0.3,13.9,1.4,20.4,3.1l-2.8,9
				l9.1,2.9l3-9c6.4,2.4,12.5,5.6,18.2,9.4l-5.5,7.6l7.7,5.6l5.5-7.6c1.4,1.1,2.9,2.3,4.2,3.5L-122.7,495.3z M-14.1,521.2
				c0-2.6,2.1-4.8,4.8-4.8s4.8,2.1,4.8,4.8s-2.1,4.8-4.8,4.8C-12,526-14.1,523.8-14.1,521.2z M81.1,530.7c0,2.6-2.1,4.8-4.8,4.8
				H-9.4c7.9,0,14.3-6.4,14.3-14.3c0-7.9-6.4-14.3-14.3-14.3s-14.3,6.4-14.3,14.3c0,7.9,6.4,14.3,14.3,14.3h-85.7
				c-2.6,0-4.8-2.1-4.8-4.8v-23.8h90.5h90.5L81.1,530.7L81.1,530.7z M0.1,471.6l-5.2-5.2l98-98l5.2,5.2L0.1,471.6z M104.9,366.8
				l-17.1-17.1l7.6-7.6l17.1,17.1L104.9,366.8z M125.2,346.6l-6,6l-17.1-17.1l6-6c2.3-2.3,5.3-3.5,8.5-3.5c6.7,0,12.1,5.4,12.1,12.1
				C128.7,341.3,127.5,344.3,125.2,346.6z"/>
			<rect x="-38" y="268.8" class="st0" width="57.1" height="9.5"/>
		</g>
	</g>
</g>
</svg>
